<mxfile host="app.diagrams.net" modified="2022-01-22T08:01:07.831Z" agent="5.0 (Windows NT 10.0; Win64; x64) AppleWebKit/537.36 (KHTML, like Gecko) Chrome/93.0.4577.82 Safari/537.36" etag="i3YQZn-C6oYfhGTYjTHZ" version="16.4.5" type="github">
  <diagram id="Uc_sxzy08M7rcsKGKe3s" name="第 1 页">
    <mxGraphModel dx="898" dy="386" grid="1" gridSize="10" guides="1" tooltips="1" connect="1" arrows="1" fold="1" page="1" pageScale="1" pageWidth="827" pageHeight="1169" background="#ffffff" math="0" shadow="0">
      <root>
        <mxCell id="0" />
        <mxCell id="1" parent="0" />
        <mxCell id="4reCBehN8ic0hAdmkS-9-1" value="&lt;font face=&quot;Comic Sans MS&quot; style=&quot;font-size: 14px&quot;&gt;A&lt;/font&gt;" style="rounded=0;whiteSpace=wrap;html=1;fillColor=#f5f5f5;fontColor=#333333;strokeColor=#666666;shadow=1;" vertex="1" parent="1">
          <mxGeometry x="200" y="200" width="40" height="40" as="geometry" />
        </mxCell>
        <mxCell id="4reCBehN8ic0hAdmkS-9-2" value="&lt;font face=&quot;Comic Sans MS&quot;&gt;&lt;span style=&quot;font-size: 14px&quot;&gt;B&lt;/span&gt;&lt;/font&gt;" style="rounded=0;whiteSpace=wrap;html=1;fillColor=#f5f5f5;fontColor=#333333;strokeColor=#666666;shadow=1;" vertex="1" parent="1">
          <mxGeometry x="240" y="200" width="40" height="40" as="geometry" />
        </mxCell>
        <mxCell id="4reCBehN8ic0hAdmkS-9-3" value="&lt;font face=&quot;Comic Sans MS&quot; style=&quot;font-size: 14px&quot;&gt;A&lt;/font&gt;" style="rounded=0;whiteSpace=wrap;html=1;fillColor=#f5f5f5;fontColor=#333333;strokeColor=#666666;shadow=1;" vertex="1" parent="1">
          <mxGeometry x="280" y="200" width="40" height="40" as="geometry" />
        </mxCell>
        <mxCell id="4reCBehN8ic0hAdmkS-9-4" value="&lt;font face=&quot;Comic Sans MS&quot;&gt;&lt;span style=&quot;font-size: 14px&quot;&gt;A&lt;/span&gt;&lt;/font&gt;" style="rounded=0;whiteSpace=wrap;html=1;fillColor=#f5f5f5;fontColor=#333333;strokeColor=#666666;shadow=1;" vertex="1" parent="1">
          <mxGeometry x="320" y="200" width="40" height="40" as="geometry" />
        </mxCell>
        <mxCell id="4reCBehN8ic0hAdmkS-9-5" value="&lt;font face=&quot;Comic Sans MS&quot;&gt;&lt;span style=&quot;font-size: 14px&quot;&gt;C&lt;/span&gt;&lt;/font&gt;" style="rounded=0;whiteSpace=wrap;html=1;fillColor=#f5f5f5;fontColor=#333333;strokeColor=#666666;shadow=1;" vertex="1" parent="1">
          <mxGeometry x="360" y="200" width="40" height="40" as="geometry" />
        </mxCell>
        <mxCell id="4reCBehN8ic0hAdmkS-9-6" value="&lt;font face=&quot;Comic Sans MS&quot;&gt;&lt;span style=&quot;font-size: 14px&quot;&gt;B&lt;/span&gt;&lt;/font&gt;" style="rounded=0;whiteSpace=wrap;html=1;fillColor=#f5f5f5;fontColor=#333333;strokeColor=#666666;shadow=1;" vertex="1" parent="1">
          <mxGeometry x="400" y="200" width="40" height="40" as="geometry" />
        </mxCell>
        <mxCell id="4reCBehN8ic0hAdmkS-9-7" value="&lt;font face=&quot;Comic Sans MS&quot;&gt;&lt;span style=&quot;font-size: 14px&quot;&gt;A&lt;/span&gt;&lt;/font&gt;" style="rounded=0;whiteSpace=wrap;html=1;fillColor=#f5f5f5;fontColor=#333333;strokeColor=#666666;shadow=1;" vertex="1" parent="1">
          <mxGeometry x="440" y="200" width="40" height="40" as="geometry" />
        </mxCell>
        <mxCell id="4reCBehN8ic0hAdmkS-9-8" value="&lt;font face=&quot;Comic Sans MS&quot;&gt;&lt;span style=&quot;font-size: 14px&quot;&gt;B&lt;/span&gt;&lt;/font&gt;" style="rounded=0;whiteSpace=wrap;html=1;fillColor=#f5f5f5;fontColor=#333333;strokeColor=#666666;shadow=1;" vertex="1" parent="1">
          <mxGeometry x="480" y="200" width="40" height="40" as="geometry" />
        </mxCell>
        <mxCell id="4reCBehN8ic0hAdmkS-9-9" value="&lt;font face=&quot;Comic Sans MS&quot; style=&quot;font-size: 14px&quot;&gt;0&lt;/font&gt;" style="rounded=0;whiteSpace=wrap;html=1;fillColor=#f5f5f5;fontColor=#333333;strokeColor=#666666;shadow=1;opacity=0;" vertex="1" parent="1">
          <mxGeometry x="200" y="160" width="40" height="40" as="geometry" />
        </mxCell>
        <mxCell id="4reCBehN8ic0hAdmkS-9-10" value="&lt;font face=&quot;Comic Sans MS&quot;&gt;&lt;span style=&quot;font-size: 14px&quot;&gt;1&lt;/span&gt;&lt;/font&gt;" style="rounded=0;whiteSpace=wrap;html=1;fillColor=#f5f5f5;fontColor=#333333;strokeColor=#666666;shadow=1;opacity=0;" vertex="1" parent="1">
          <mxGeometry x="240" y="160" width="40" height="40" as="geometry" />
        </mxCell>
        <mxCell id="4reCBehN8ic0hAdmkS-9-11" value="&lt;font face=&quot;Comic Sans MS&quot; style=&quot;font-size: 14px&quot;&gt;2&lt;/font&gt;" style="rounded=0;whiteSpace=wrap;html=1;fillColor=#f5f5f5;fontColor=#333333;strokeColor=#666666;shadow=1;opacity=0;" vertex="1" parent="1">
          <mxGeometry x="280" y="160" width="40" height="40" as="geometry" />
        </mxCell>
        <mxCell id="4reCBehN8ic0hAdmkS-9-12" value="&lt;font face=&quot;Comic Sans MS&quot;&gt;&lt;span style=&quot;font-size: 14px&quot;&gt;3&lt;/span&gt;&lt;/font&gt;" style="rounded=0;whiteSpace=wrap;html=1;fillColor=#f5f5f5;fontColor=#333333;strokeColor=#666666;shadow=1;opacity=0;" vertex="1" parent="1">
          <mxGeometry x="320" y="160" width="40" height="40" as="geometry" />
        </mxCell>
        <mxCell id="4reCBehN8ic0hAdmkS-9-13" value="&lt;font face=&quot;Comic Sans MS&quot;&gt;&lt;span style=&quot;font-size: 14px&quot;&gt;4&lt;/span&gt;&lt;/font&gt;" style="rounded=0;whiteSpace=wrap;html=1;fillColor=#f5f5f5;fontColor=#333333;strokeColor=#666666;shadow=1;opacity=0;" vertex="1" parent="1">
          <mxGeometry x="360" y="160" width="40" height="40" as="geometry" />
        </mxCell>
        <mxCell id="4reCBehN8ic0hAdmkS-9-14" value="&lt;font face=&quot;Comic Sans MS&quot;&gt;&lt;span style=&quot;font-size: 14px&quot;&gt;5&lt;/span&gt;&lt;/font&gt;" style="rounded=0;whiteSpace=wrap;html=1;fillColor=#f5f5f5;fontColor=#333333;strokeColor=#666666;shadow=1;opacity=0;" vertex="1" parent="1">
          <mxGeometry x="400" y="160" width="40" height="40" as="geometry" />
        </mxCell>
        <mxCell id="4reCBehN8ic0hAdmkS-9-15" value="&lt;font face=&quot;Comic Sans MS&quot;&gt;&lt;span style=&quot;font-size: 14px&quot;&gt;6&lt;/span&gt;&lt;/font&gt;" style="rounded=0;whiteSpace=wrap;html=1;fillColor=#f5f5f5;fontColor=#333333;strokeColor=#666666;shadow=1;opacity=0;" vertex="1" parent="1">
          <mxGeometry x="440" y="160" width="40" height="40" as="geometry" />
        </mxCell>
        <mxCell id="4reCBehN8ic0hAdmkS-9-16" value="&lt;font face=&quot;Comic Sans MS&quot;&gt;&lt;span style=&quot;font-size: 14px&quot;&gt;7&lt;/span&gt;&lt;/font&gt;" style="rounded=0;whiteSpace=wrap;html=1;fillColor=#f5f5f5;fontColor=#333333;strokeColor=#666666;shadow=1;opacity=0;" vertex="1" parent="1">
          <mxGeometry x="480" y="160" width="40" height="40" as="geometry" />
        </mxCell>
        <mxCell id="4reCBehN8ic0hAdmkS-9-17" value="&lt;font face=&quot;Comic Sans MS&quot; style=&quot;font-size: 14px&quot;&gt;A&lt;/font&gt;" style="rounded=0;whiteSpace=wrap;html=1;fillColor=#fff2cc;strokeColor=#d6b656;shadow=1;" vertex="1" parent="1">
          <mxGeometry x="200" y="80" width="30" height="20" as="geometry" />
        </mxCell>
        <mxCell id="4reCBehN8ic0hAdmkS-9-18" value="&lt;font face=&quot;Comic Sans MS&quot; style=&quot;font-size: 14px&quot;&gt;1&lt;/font&gt;" style="rounded=0;whiteSpace=wrap;html=1;fillColor=#d5e8d4;strokeColor=#82b366;shadow=1;" vertex="1" parent="1">
          <mxGeometry x="230" y="80" width="30" height="20" as="geometry" />
        </mxCell>
        <mxCell id="4reCBehN8ic0hAdmkS-9-19" value="&lt;font face=&quot;Comic Sans MS&quot;&gt;&lt;span style=&quot;font-size: 14px&quot;&gt;C&lt;/span&gt;&lt;/font&gt;" style="rounded=0;whiteSpace=wrap;html=1;fillColor=#fff2cc;strokeColor=#d6b656;shadow=1;" vertex="1" parent="1">
          <mxGeometry x="200" y="100" width="30" height="20" as="geometry" />
        </mxCell>
        <mxCell id="4reCBehN8ic0hAdmkS-9-20" value="&lt;font face=&quot;Comic Sans MS&quot; style=&quot;font-size: 14px&quot;&gt;1&lt;/font&gt;" style="rounded=0;whiteSpace=wrap;html=1;fillColor=#d5e8d4;strokeColor=#82b366;shadow=1;" vertex="1" parent="1">
          <mxGeometry x="230" y="100" width="30" height="20" as="geometry" />
        </mxCell>
        <mxCell id="4reCBehN8ic0hAdmkS-9-26" value="&lt;font face=&quot;Comic Sans MS&quot;&gt;&lt;span style=&quot;font-size: 14px&quot;&gt;B&lt;/span&gt;&lt;/font&gt;" style="rounded=0;whiteSpace=wrap;html=1;fillColor=#fff2cc;strokeColor=#d6b656;shadow=1;" vertex="1" parent="1">
          <mxGeometry x="200" y="120" width="30" height="20" as="geometry" />
        </mxCell>
        <mxCell id="4reCBehN8ic0hAdmkS-9-27" value="&lt;font face=&quot;Comic Sans MS&quot; style=&quot;font-size: 14px&quot;&gt;1&lt;/font&gt;" style="rounded=0;whiteSpace=wrap;html=1;fillColor=#d5e8d4;strokeColor=#82b366;shadow=1;" vertex="1" parent="1">
          <mxGeometry x="230" y="120" width="30" height="20" as="geometry" />
        </mxCell>
        <mxCell id="4reCBehN8ic0hAdmkS-9-29" value="&lt;font face=&quot;Comic Sans MS&quot; style=&quot;font-size: 14px&quot;&gt;A&lt;/font&gt;" style="rounded=0;whiteSpace=wrap;html=1;fillColor=#dae8fc;strokeColor=#6c8ebf;shadow=1;" vertex="1" parent="1">
          <mxGeometry x="400" y="100" width="40" height="40" as="geometry" />
        </mxCell>
        <mxCell id="4reCBehN8ic0hAdmkS-9-30" value="&lt;font face=&quot;Comic Sans MS&quot;&gt;&lt;span style=&quot;font-size: 14px&quot;&gt;B&lt;/span&gt;&lt;/font&gt;" style="rounded=0;whiteSpace=wrap;html=1;fillColor=#dae8fc;strokeColor=#6c8ebf;shadow=1;" vertex="1" parent="1">
          <mxGeometry x="440" y="100" width="40" height="40" as="geometry" />
        </mxCell>
        <mxCell id="4reCBehN8ic0hAdmkS-9-31" value="&lt;font face=&quot;Comic Sans MS&quot;&gt;&lt;span style=&quot;font-size: 14px&quot;&gt;C&lt;/span&gt;&lt;/font&gt;" style="rounded=0;whiteSpace=wrap;html=1;fillColor=#dae8fc;strokeColor=#6c8ebf;shadow=1;" vertex="1" parent="1">
          <mxGeometry x="480" y="100" width="40" height="40" as="geometry" />
        </mxCell>
        <mxCell id="4reCBehN8ic0hAdmkS-9-32" value="&lt;font face=&quot;Garamond&quot;&gt;字符串 t&lt;/font&gt;" style="text;html=1;strokeColor=none;fillColor=none;align=center;verticalAlign=middle;whiteSpace=wrap;rounded=0;shadow=1;fontFamily=Comic Sans MS;fontSize=14;opacity=0;" vertex="1" parent="1">
          <mxGeometry x="400" y="60" width="120" height="40" as="geometry" />
        </mxCell>
        <mxCell id="4reCBehN8ic0hAdmkS-9-33" value="&lt;font face=&quot;Garamond&quot;&gt;哈希表&lt;/font&gt;" style="text;html=1;strokeColor=none;fillColor=none;align=center;verticalAlign=middle;whiteSpace=wrap;rounded=0;shadow=1;fontFamily=Comic Sans MS;fontSize=14;opacity=0;" vertex="1" parent="1">
          <mxGeometry x="200" y="60" width="60" height="20" as="geometry" />
        </mxCell>
        <mxCell id="4reCBehN8ic0hAdmkS-9-34" value="&lt;font face=&quot;Garamond&quot;&gt;key&lt;/font&gt;" style="text;html=1;strokeColor=none;fillColor=none;align=center;verticalAlign=middle;whiteSpace=wrap;rounded=0;shadow=1;fontFamily=Comic Sans MS;fontSize=14;opacity=0;" vertex="1" parent="1">
          <mxGeometry x="190" y="140" width="30" height="20" as="geometry" />
        </mxCell>
        <mxCell id="4reCBehN8ic0hAdmkS-9-35" value="&lt;font face=&quot;Garamond&quot;&gt;value&lt;/font&gt;" style="text;html=1;strokeColor=none;fillColor=none;align=center;verticalAlign=middle;whiteSpace=wrap;rounded=0;shadow=1;fontFamily=Comic Sans MS;fontSize=14;opacity=0;" vertex="1" parent="1">
          <mxGeometry x="240" y="140" width="30" height="20" as="geometry" />
        </mxCell>
        <mxCell id="4reCBehN8ic0hAdmkS-9-36" value="&lt;font face=&quot;Garamond&quot;&gt;字符串 s&lt;/font&gt;" style="text;html=1;strokeColor=none;fillColor=none;align=center;verticalAlign=middle;whiteSpace=wrap;rounded=0;shadow=1;fontFamily=Comic Sans MS;fontSize=14;opacity=0;" vertex="1" parent="1">
          <mxGeometry x="320" y="150" width="80" height="20" as="geometry" />
        </mxCell>
        <mxCell id="4reCBehN8ic0hAdmkS-9-37" value="" style="shape=curlyBracket;whiteSpace=wrap;html=1;rounded=1;flipH=1;shadow=1;fontFamily=Garamond;fontSize=14;rotation=90;" vertex="1" parent="1">
          <mxGeometry x="376.75" y="189.25" width="8" height="119.5" as="geometry" />
        </mxCell>
        <mxCell id="4reCBehN8ic0hAdmkS-9-38" value="&lt;font face=&quot;Garamond&quot;&gt;滑动窗口&lt;/font&gt;" style="text;html=1;strokeColor=none;fillColor=none;align=center;verticalAlign=middle;whiteSpace=wrap;rounded=0;shadow=1;fontFamily=Comic Sans MS;fontSize=14;opacity=0;" vertex="1" parent="1">
          <mxGeometry x="340.75" y="260" width="80" height="20" as="geometry" />
        </mxCell>
        <mxCell id="4reCBehN8ic0hAdmkS-9-39" value="&lt;font face=&quot;Comic Sans MS&quot; style=&quot;font-size: 14px&quot;&gt;A&lt;/font&gt;" style="rounded=0;whiteSpace=wrap;html=1;fillColor=#e1d5e7;strokeColor=#9673a6;shadow=1;" vertex="1" parent="1">
          <mxGeometry x="200" y="360.75" width="40" height="40" as="geometry" />
        </mxCell>
        <mxCell id="4reCBehN8ic0hAdmkS-9-40" value="&lt;font face=&quot;Comic Sans MS&quot;&gt;&lt;span style=&quot;font-size: 14px&quot;&gt;B&lt;/span&gt;&lt;/font&gt;" style="rounded=0;whiteSpace=wrap;html=1;fillColor=#e1d5e7;strokeColor=#9673a6;shadow=1;" vertex="1" parent="1">
          <mxGeometry x="240" y="360.75" width="40" height="40" as="geometry" />
        </mxCell>
        <mxCell id="4reCBehN8ic0hAdmkS-9-41" value="&lt;font face=&quot;Comic Sans MS&quot; style=&quot;font-size: 14px&quot;&gt;A&lt;/font&gt;" style="rounded=0;whiteSpace=wrap;html=1;fillColor=#e1d5e7;strokeColor=#9673a6;shadow=1;" vertex="1" parent="1">
          <mxGeometry x="280" y="360.75" width="40" height="40" as="geometry" />
        </mxCell>
        <mxCell id="4reCBehN8ic0hAdmkS-9-42" value="&lt;font face=&quot;Comic Sans MS&quot;&gt;&lt;span style=&quot;font-size: 14px&quot;&gt;A&lt;/span&gt;&lt;/font&gt;" style="rounded=0;whiteSpace=wrap;html=1;fillColor=#f8cecc;strokeColor=#b85450;shadow=1;" vertex="1" parent="1">
          <mxGeometry x="320" y="360.75" width="40" height="40" as="geometry" />
        </mxCell>
        <mxCell id="4reCBehN8ic0hAdmkS-9-43" value="&lt;font face=&quot;Comic Sans MS&quot;&gt;&lt;span style=&quot;font-size: 14px&quot;&gt;C&lt;/span&gt;&lt;/font&gt;" style="rounded=0;whiteSpace=wrap;html=1;fillColor=#f8cecc;strokeColor=#b85450;shadow=1;" vertex="1" parent="1">
          <mxGeometry x="360" y="360.75" width="40" height="40" as="geometry" />
        </mxCell>
        <mxCell id="4reCBehN8ic0hAdmkS-9-44" value="&lt;font face=&quot;Comic Sans MS&quot;&gt;&lt;span style=&quot;font-size: 14px&quot;&gt;B&lt;/span&gt;&lt;/font&gt;" style="rounded=0;whiteSpace=wrap;html=1;fillColor=#f8cecc;strokeColor=#b85450;shadow=1;" vertex="1" parent="1">
          <mxGeometry x="400" y="360.75" width="40" height="40" as="geometry" />
        </mxCell>
        <mxCell id="4reCBehN8ic0hAdmkS-9-45" value="&lt;font face=&quot;Comic Sans MS&quot;&gt;&lt;span style=&quot;font-size: 14px&quot;&gt;A&lt;/span&gt;&lt;/font&gt;" style="rounded=0;whiteSpace=wrap;html=1;fillColor=#f5f5f5;fontColor=#333333;strokeColor=#666666;shadow=1;" vertex="1" parent="1">
          <mxGeometry x="440" y="360.75" width="40" height="40" as="geometry" />
        </mxCell>
        <mxCell id="4reCBehN8ic0hAdmkS-9-46" value="&lt;font face=&quot;Comic Sans MS&quot;&gt;&lt;span style=&quot;font-size: 14px&quot;&gt;B&lt;/span&gt;&lt;/font&gt;" style="rounded=0;whiteSpace=wrap;html=1;fillColor=#f5f5f5;fontColor=#333333;strokeColor=#666666;shadow=1;" vertex="1" parent="1">
          <mxGeometry x="480" y="360.75" width="40" height="40" as="geometry" />
        </mxCell>
        <mxCell id="4reCBehN8ic0hAdmkS-9-47" value="" style="shape=curlyBracket;whiteSpace=wrap;html=1;rounded=1;flipH=1;shadow=1;fontFamily=Garamond;fontSize=14;rotation=90;fillColor=#f8cecc;strokeColor=#000000;" vertex="1" parent="1">
          <mxGeometry x="376.75" y="350" width="8" height="119.5" as="geometry" />
        </mxCell>
        <mxCell id="4reCBehN8ic0hAdmkS-9-48" value="&lt;font face=&quot;Garamond&quot;&gt;滑动窗口&lt;/font&gt;" style="text;html=1;strokeColor=none;fillColor=none;align=center;verticalAlign=middle;whiteSpace=wrap;rounded=0;shadow=1;fontFamily=Comic Sans MS;fontSize=14;opacity=0;" vertex="1" parent="1">
          <mxGeometry x="340.75" y="420.75" width="80" height="20" as="geometry" />
        </mxCell>
        <mxCell id="4reCBehN8ic0hAdmkS-9-49" value="&lt;font face=&quot;Comic Sans MS&quot; style=&quot;font-size: 14px&quot;&gt;0&lt;/font&gt;" style="rounded=0;whiteSpace=wrap;html=1;fillColor=#f5f5f5;fontColor=#333333;strokeColor=#666666;shadow=1;opacity=0;" vertex="1" parent="1">
          <mxGeometry x="200" y="320.75" width="40" height="40" as="geometry" />
        </mxCell>
        <mxCell id="4reCBehN8ic0hAdmkS-9-50" value="&lt;font face=&quot;Comic Sans MS&quot;&gt;&lt;span style=&quot;font-size: 14px&quot;&gt;1&lt;/span&gt;&lt;/font&gt;" style="rounded=0;whiteSpace=wrap;html=1;fillColor=#f5f5f5;fontColor=#333333;strokeColor=#666666;shadow=1;opacity=0;" vertex="1" parent="1">
          <mxGeometry x="240" y="320.75" width="40" height="40" as="geometry" />
        </mxCell>
        <mxCell id="4reCBehN8ic0hAdmkS-9-51" value="&lt;font face=&quot;Comic Sans MS&quot; style=&quot;font-size: 14px&quot;&gt;2&lt;/font&gt;" style="rounded=0;whiteSpace=wrap;html=1;fillColor=#f5f5f5;fontColor=#333333;strokeColor=#666666;shadow=1;opacity=0;" vertex="1" parent="1">
          <mxGeometry x="280" y="320.75" width="40" height="40" as="geometry" />
        </mxCell>
        <mxCell id="4reCBehN8ic0hAdmkS-9-52" value="&lt;font face=&quot;Comic Sans MS&quot;&gt;&lt;span style=&quot;font-size: 14px&quot;&gt;3&lt;/span&gt;&lt;/font&gt;" style="rounded=0;whiteSpace=wrap;html=1;fillColor=#f5f5f5;fontColor=#333333;strokeColor=#666666;shadow=1;opacity=0;" vertex="1" parent="1">
          <mxGeometry x="320" y="320.75" width="40" height="40" as="geometry" />
        </mxCell>
        <mxCell id="4reCBehN8ic0hAdmkS-9-53" value="&lt;font face=&quot;Comic Sans MS&quot;&gt;&lt;span style=&quot;font-size: 14px&quot;&gt;4&lt;/span&gt;&lt;/font&gt;" style="rounded=0;whiteSpace=wrap;html=1;fillColor=#f5f5f5;fontColor=#333333;strokeColor=#666666;shadow=1;opacity=0;" vertex="1" parent="1">
          <mxGeometry x="360" y="320.75" width="40" height="40" as="geometry" />
        </mxCell>
        <mxCell id="4reCBehN8ic0hAdmkS-9-54" value="&lt;font face=&quot;Comic Sans MS&quot;&gt;&lt;span style=&quot;font-size: 14px&quot;&gt;5&lt;/span&gt;&lt;/font&gt;" style="rounded=0;whiteSpace=wrap;html=1;fillColor=#f5f5f5;fontColor=#333333;strokeColor=#666666;shadow=1;opacity=0;" vertex="1" parent="1">
          <mxGeometry x="400" y="320.75" width="40" height="40" as="geometry" />
        </mxCell>
        <mxCell id="4reCBehN8ic0hAdmkS-9-55" value="&lt;font face=&quot;Comic Sans MS&quot;&gt;&lt;span style=&quot;font-size: 14px&quot;&gt;6&lt;/span&gt;&lt;/font&gt;" style="rounded=0;whiteSpace=wrap;html=1;fillColor=#f5f5f5;fontColor=#333333;strokeColor=#666666;shadow=1;opacity=0;" vertex="1" parent="1">
          <mxGeometry x="440" y="320.75" width="40" height="40" as="geometry" />
        </mxCell>
        <mxCell id="4reCBehN8ic0hAdmkS-9-56" value="&lt;font face=&quot;Comic Sans MS&quot;&gt;&lt;span style=&quot;font-size: 14px&quot;&gt;7&lt;/span&gt;&lt;/font&gt;" style="rounded=0;whiteSpace=wrap;html=1;fillColor=#f5f5f5;fontColor=#333333;strokeColor=#666666;shadow=1;opacity=0;" vertex="1" parent="1">
          <mxGeometry x="480" y="320.75" width="40" height="40" as="geometry" />
        </mxCell>
        <mxCell id="4reCBehN8ic0hAdmkS-9-58" value="&lt;font face=&quot;Comic Sans MS&quot; style=&quot;font-size: 14px&quot;&gt;A&lt;/font&gt;" style="rounded=0;whiteSpace=wrap;html=1;fillColor=#fff2cc;strokeColor=#d6b656;shadow=1;" vertex="1" parent="1">
          <mxGeometry x="120" y="340.75" width="30" height="20" as="geometry" />
        </mxCell>
        <mxCell id="4reCBehN8ic0hAdmkS-9-59" value="&lt;font face=&quot;Comic Sans MS&quot; style=&quot;font-size: 14px&quot;&gt;1&lt;/font&gt;" style="rounded=0;whiteSpace=wrap;html=1;fillColor=#d5e8d4;strokeColor=#82b366;shadow=1;" vertex="1" parent="1">
          <mxGeometry x="150" y="340.75" width="30" height="20" as="geometry" />
        </mxCell>
        <mxCell id="4reCBehN8ic0hAdmkS-9-60" value="&lt;font face=&quot;Comic Sans MS&quot;&gt;&lt;span style=&quot;font-size: 14px&quot;&gt;C&lt;/span&gt;&lt;/font&gt;" style="rounded=0;whiteSpace=wrap;html=1;fillColor=#fff2cc;strokeColor=#d6b656;shadow=1;" vertex="1" parent="1">
          <mxGeometry x="120" y="360.75" width="30" height="20" as="geometry" />
        </mxCell>
        <mxCell id="4reCBehN8ic0hAdmkS-9-61" value="&lt;font face=&quot;Comic Sans MS&quot; style=&quot;font-size: 14px&quot;&gt;1&lt;/font&gt;" style="rounded=0;whiteSpace=wrap;html=1;fillColor=#d5e8d4;strokeColor=#82b366;shadow=1;" vertex="1" parent="1">
          <mxGeometry x="150" y="360.75" width="30" height="20" as="geometry" />
        </mxCell>
        <mxCell id="4reCBehN8ic0hAdmkS-9-62" value="&lt;font face=&quot;Comic Sans MS&quot;&gt;&lt;span style=&quot;font-size: 14px&quot;&gt;B&lt;/span&gt;&lt;/font&gt;" style="rounded=0;whiteSpace=wrap;html=1;fillColor=#fff2cc;strokeColor=#d6b656;shadow=1;" vertex="1" parent="1">
          <mxGeometry x="120" y="380.75" width="30" height="20" as="geometry" />
        </mxCell>
        <mxCell id="4reCBehN8ic0hAdmkS-9-63" value="&lt;font face=&quot;Comic Sans MS&quot; style=&quot;font-size: 14px&quot;&gt;1&lt;/font&gt;" style="rounded=0;whiteSpace=wrap;html=1;fillColor=#d5e8d4;strokeColor=#82b366;shadow=1;" vertex="1" parent="1">
          <mxGeometry x="150" y="380.75" width="30" height="20" as="geometry" />
        </mxCell>
        <mxCell id="4reCBehN8ic0hAdmkS-9-64" value="&lt;font face=&quot;Garamond&quot;&gt;哈希表&lt;/font&gt;" style="text;html=1;strokeColor=none;fillColor=none;align=center;verticalAlign=middle;whiteSpace=wrap;rounded=0;shadow=1;fontFamily=Comic Sans MS;fontSize=14;opacity=0;" vertex="1" parent="1">
          <mxGeometry x="120" y="320.75" width="60" height="20" as="geometry" />
        </mxCell>
        <mxCell id="4reCBehN8ic0hAdmkS-9-65" value="&lt;font face=&quot;Garamond&quot;&gt;key&lt;/font&gt;" style="text;html=1;strokeColor=none;fillColor=none;align=center;verticalAlign=middle;whiteSpace=wrap;rounded=0;shadow=1;fontFamily=Comic Sans MS;fontSize=14;opacity=0;" vertex="1" parent="1">
          <mxGeometry x="110" y="400.75" width="30" height="20" as="geometry" />
        </mxCell>
        <mxCell id="4reCBehN8ic0hAdmkS-9-66" value="&lt;font face=&quot;Garamond&quot;&gt;value&lt;/font&gt;" style="text;html=1;strokeColor=none;fillColor=none;align=center;verticalAlign=middle;whiteSpace=wrap;rounded=0;shadow=1;fontFamily=Comic Sans MS;fontSize=14;opacity=0;" vertex="1" parent="1">
          <mxGeometry x="160" y="400.75" width="30" height="20" as="geometry" />
        </mxCell>
        <mxCell id="4reCBehN8ic0hAdmkS-9-67" value="&lt;font style=&quot;font-size: 12px&quot;&gt;left&lt;/font&gt;" style="text;html=1;strokeColor=none;fillColor=none;align=center;verticalAlign=middle;whiteSpace=wrap;rounded=0;shadow=1;fontFamily=Comic Sans MS;fontSize=14;opacity=0;" vertex="1" parent="1">
          <mxGeometry x="320" y="381.5" width="30" height="19.25" as="geometry" />
        </mxCell>
        <mxCell id="4reCBehN8ic0hAdmkS-9-68" value="&lt;font style=&quot;font-size: 12px&quot;&gt;right&lt;/font&gt;" style="text;html=1;strokeColor=none;fillColor=none;align=center;verticalAlign=middle;whiteSpace=wrap;rounded=0;shadow=1;fontFamily=Comic Sans MS;fontSize=14;opacity=0;" vertex="1" parent="1">
          <mxGeometry x="410" y="381.12" width="30" height="19.25" as="geometry" />
        </mxCell>
        <mxCell id="4reCBehN8ic0hAdmkS-9-69" value="" style="shape=curlyBracket;whiteSpace=wrap;html=1;rounded=1;flipH=1;shadow=1;fontFamily=Garamond;fontSize=14;rotation=90;fillColor=#f8cecc;strokeColor=#000000;" vertex="1" parent="1">
          <mxGeometry x="256" y="350" width="8" height="119.5" as="geometry" />
        </mxCell>
      </root>
    </mxGraphModel>
  </diagram>
</mxfile>
